<svg xmlns="http://www.w3.org/2000/svg" width="36" height="34" viewBox="0 0 36 34"><g><g><g/><g><g><g><path fill="#e33439" d="M33.26 10.545c1.511 0 2.74 1.229 2.74 2.74v1.564a2.743 2.743 0 0 1-2.502 2.73l-1.918 13.42a3.54 3.54 0 0 1-3.486 3.025H8.25a3.51 3.51 0 0 1-3.474-2.943l-2.25-13.5A2.743 2.743 0 0 1 0 14.85v-1.566c0-1.51 1.229-2.739 2.74-2.739h1.865l.043-.047L14.822.324a1.174 1.174 0 1 1 1.66 1.66l-8.561 8.561h20.158l-8.561-8.561a1.174 1.174 0 1 1 1.66-1.66l10.174 10.174.043.047zm.392 2.74a.392.392 0 0 0-.391-.392H2.739a.392.392 0 0 0-.391.391v1.565c0 .216.175.392.391.392h11.74a1.174 1.174 0 0 1 0 2.348H4.907l2.184 13.106a1.17 1.17 0 0 0 1.158.98h19.844c.58 0 1.08-.433 1.162-1.007l1.869-13.08h-9.603a1.174 1.174 0 0 1 0-2.347H33.26a.392.392 0 0 0 .391-.391z"/></g></g></g><g><g><g><path fill="#e33439" d="M10.954 19.93c-.648 0-1.174.526-1.174 1.174v7.043a1.174 1.174 0 0 0 2.348 0v-7.043c0-.648-.526-1.174-1.174-1.174z"/></g></g></g><g><g><g><path fill="#e33439" d="M18.004 19.93c-.648 0-1.174.526-1.174 1.174v7.043a1.174 1.174 0 0 0 2.348 0v-7.043c0-.648-.526-1.174-1.174-1.174z"/></g></g></g><g><g><g><path fill="#e33439" d="M25.044 19.93c-.648 0-1.174.526-1.174 1.174v7.043a1.174 1.174 0 0 0 2.348 0v-7.043c0-.648-.526-1.174-1.174-1.174z"/></g></g></g></g></g></svg>