<svg xmlns="http://www.w3.org/2000/svg">
  <symbol id="icon-facebook" viewBox="0 0 8 16">
    <path fill-rule="evenodd" clip-rule="evenodd" d="M4.815 15.305V8.006H6.83l.267-2.515H4.815l.004-1.26c0-.655.062-1.007 1.004-1.007h1.26V.708H5.068c-2.421 0-3.273 1.22-3.273 3.273v1.51H.286v2.515h1.509v7.3h3.02z"/>
  </symbol>

  <symbol id="icon-vk" viewBox="0 0 15 9">
    <path d="M7.952 8.82s.258-.029.39-.168c.122-.128.118-.369.118-.369s-.017-1.126.516-1.292c.525-.164 1.2 1.089 1.914 1.57.54.364.951.285.951.285l1.912-.026s1-.06.525-.832c-.039-.064-.276-.571-1.42-1.614-1.2-1.092-1.039-.916.405-2.804.879-1.15 1.23-1.853 1.12-2.153-.104-.287-.75-.21-.75-.21l-2.152.012s-.16-.021-.278.048c-.116.068-.19.227-.19.227s-.34.89-.795 1.647C9.26 4.738 8.877 4.822 8.72 4.723c-.365-.231-.274-.929-.274-1.424 0-1.548.24-2.193-.465-2.36C7.747.883 7.575.847 6.976.84 6.21.833 5.56.843 5.191 1.02c-.245.117-.434.38-.319.395.142.019.464.085.635.313.22.295.213.956.213.956s.127 1.822-.296 2.048c-.29.155-.687-.161-1.542-1.61-.438-.742-.768-1.563-.768-1.563s-.064-.153-.178-.235c-.138-.1-.33-.13-.33-.13L.56 1.205s-.307.008-.42.14c-.1.116-.007.357-.007.357s1.6 3.676 3.413 5.53C5.21 8.93 7.097 8.82 7.097 8.82h.855z"/>
  </symbol>

  <symbol id="icon-youtube" viewBox="0 0 15 11">
    <g><g><path fill="#fff" d="M13.942 2.106A1.817 1.817 0 0 0 12.677.807C11.56.5 7.086.5 7.086.5S2.61.5 1.494.807c-.615.17-1.1.667-1.265 1.3C-.07 3.251-.07 5.642-.07 5.642s0 2.39.299 3.537c.165.632.65 1.13 1.265 1.3 1.116.306 5.592.306 5.592.306s4.475 0 5.59-.307a1.817 1.817 0 0 0 1.266-1.3c.3-1.145.3-3.536.3-3.536s0-2.39-.3-3.537"/></g><g><path fill="red" d="M5.74 8.102V3.63l3.578 2.236z"/></g></g>
  </symbol>

  <symbol id="icon-in" viewBox="0 0 15 15">
    <g clip-path="url(#clip-127:9)"><path d="M7.915.26c1.943 0 2.186.009 2.95.043.761.035 1.281.156 1.737.333.471.182.87.427 1.268.825.398.398.642.797.825 1.267.176.455.297.975.333 1.737.034.763.043 1.007.043 2.95 0 1.944-.009 2.187-.043 2.95-.036.762-.157 1.282-.333 1.737-.183.47-.427.87-.825 1.268a3.503 3.503 0 01-1.267.826c-.455.177-.976.297-1.738.332-.763.035-1.006.043-2.95.043-1.943 0-2.187-.008-2.95-.043-.762-.035-1.282-.155-1.737-.332a3.505 3.505 0 01-1.267-.826 3.506 3.506 0 01-.825-1.268c-.177-.455-.298-.975-.333-1.737C.77 9.602.76 9.36.76 7.415c0-1.943.009-2.187.043-2.95.034-.761.155-1.282.333-1.737.183-.47.427-.87.825-1.267A3.504 3.504 0 013.23.636c.455-.177.975-.298 1.737-.333C5.729.27 5.973.26 7.916.26zm-.64 1.288c-1.334.001-1.59.01-2.25.04-.698.032-1.077.148-1.329.247a2.22 2.22 0 00-.823.535c-.25.25-.406.49-.535.823-.098.252-.215.631-.247 1.329-.034.754-.04.98-.04 2.89 0 1.911.006 2.138.04 2.892.032.698.149 1.076.247 1.328.13.334.285.572.535.823.25.25.49.405.823.535.252.098.631.214 1.329.247.754.034.98.041 2.891.041 1.91 0 2.137-.007 2.892-.041.697-.032 1.076-.149 1.328-.247a2.23 2.23 0 00.823-.535c.25-.25.405-.488.535-.822.098-.252.215-.63.247-1.328.034-.755.041-.981.041-2.891 0-1.91-.007-2.136-.041-2.89-.032-.698-.149-1.077-.247-1.329a2.22 2.22 0 00-.535-.823 2.212 2.212 0 00-.823-.535c-.252-.098-.63-.214-1.328-.246-.755-.035-.981-.041-2.892-.041h-.642zm4.46 1.19a.859.859 0 110 1.717.859.859 0 010-1.717zM7.917 3.74a3.675 3.675 0 110 7.349 3.675 3.675 0 010-7.35zM5.531 7.416a2.385 2.385 0 104.77 0 2.385 2.385 0 00-4.77 0z"/></g>
  </symbol>

  <symbol id="basket-icon" viewBox="0 0 36 34">
    <g><g><g/><g><g><g><path d="M33.26 10.545c1.511 0 2.74 1.229 2.74 2.74v1.564a2.743 2.743 0 0 1-2.502 2.73l-1.918 13.42a3.54 3.54 0 0 1-3.486 3.025H8.25a3.51 3.51 0 0 1-3.474-2.943l-2.25-13.5A2.743 2.743 0 0 1 0 14.85v-1.566c0-1.51 1.229-2.739 2.74-2.739h1.865l.043-.047L14.822.324a1.174 1.174 0 1 1 1.66 1.66l-8.561 8.561h20.158l-8.561-8.561a1.174 1.174 0 1 1 1.66-1.66l10.174 10.174.043.047zm.392 2.74a.392.392 0 0 0-.391-.392H2.739a.392.392 0 0 0-.391.391v1.565c0 .216.175.392.391.392h11.74a1.174 1.174 0 0 1 0 2.348H4.907l2.184 13.106a1.17 1.17 0 0 0 1.158.98h19.844c.58 0 1.08-.433 1.162-1.007l1.869-13.08h-9.603a1.174 1.174 0 0 1 0-2.347H33.26a.392.392 0 0 0 .391-.391z"/></g></g></g><g><g><g><path d="M10.954 19.93c-.648 0-1.174.526-1.174 1.174v7.043a1.174 1.174 0 0 0 2.348 0v-7.043c0-.648-.526-1.174-1.174-1.174z"/></g></g></g><g><g><g><path d="M18.004 19.93c-.648 0-1.174.526-1.174 1.174v7.043a1.174 1.174 0 0 0 2.348 0v-7.043c0-.648-.526-1.174-1.174-1.174z"/></g></g></g><g><g><g><path d="M25.044 19.93c-.648 0-1.174.526-1.174 1.174v7.043a1.174 1.174 0 0 0 2.348 0v-7.043c0-.648-.526-1.174-1.174-1.174z"/></g></g></g></g></g>
  </symbol>

  <symbol id="arrow-left" viewBox="0 0 21 36">
    <path fill-rule="evenodd" clip-rule="evenodd" d="M7.27747 18.1085L20.7919 32.2046L17.1532 36L1.56412e-06 18.1085L17.3613 -3.18108e-07L21 3.79535L7.27747 18.1085Z"/>
  </symbol>

  <symbol id="arrow-right" viewBox="0 0 21 36">
    <path fill-rule="evenodd" clip-rule="evenodd" d="M13.7225 17.8915L0.208103 3.79535L3.84684 0L21 17.8915L3.63873 36L0 32.2046L13.7225 17.8915Z"/>
  </symbol>
</svg>
